# xmcd CD database file
#
# Track frame offsets:
#	150
#	15409
#	28705
#	51799
#	79404
#	116883
#	144719
#	169312
#
# Disc length: 2484 seconds
#
# Revision: 0
# Processed by: cddbd v1.5.2PL0 Copyright (c) Steve Scherf et al.
# Submitted via: CDex 1.60beta1-cs1
#
DISCID=6b09b208
DTITLE=Rudi Berger, violin, paino and vocals - In Search of Harmony [2010]
DYEAR=2010
DGENRE=Jazz
TTITLE0=Waltz for Veronika
TTITLE1=Short Notice
TTITLE2=So far you see
TTITLE3=I remember Bela
TTITLE4=Harlem - Niteroi Suite
TTITLE5=Back to Belo
TTITLE6=This is for Love
TTITLE7=Gerry's Mood
EXTD=YEAR: 2010
EXTT0=
EXTT1=
EXTT2=
EXTT3=
EXTT4=
EXTT5=
EXTT6=
EXTT7=
PLAYORDER=
